<?xml version="1.0" encoding="UTF-8" standalone="no"?>
<!-- Created with Inkscape (http://www.inkscape.org/) -->

<svg
   xmlns:dc="http://purl.org/dc/elements/1.1/"
   xmlns:cc="http://creativecommons.org/ns#"
   xmlns:rdf="http://www.w3.org/1999/02/22-rdf-syntax-ns#"
   xmlns:svg="http://www.w3.org/2000/svg"
   xmlns="http://www.w3.org/2000/svg"
   xmlns:sodipodi="http://sodipodi.sourceforge.net/DTD/sodipodi-0.dtd"
   xmlns:inkscape="http://www.inkscape.org/namespaces/inkscape"
   width="16"
   height="16"
   id="svg2"
   version="1.1"
   inkscape:version="0.48.2 r9819"
   inkscape:export-filename="/Users/mphilipp/Desktop/histogram.png"
   inkscape:export-xdpi="90"
   inkscape:export-ydpi="90"
   sodipodi:docname="histogram.svg">
  <defs
     id="defs4" />
  <sodipodi:namedview
     id="base"
     pagecolor="#ffffff"
     bordercolor="#666666"
     borderopacity="1.0"
     inkscape:pageopacity="0.0"
     inkscape:pageshadow="2"
     inkscape:zoom="11.313708"
     inkscape:cx="-7.6234953"
     inkscape:cy="7.5572037"
     inkscape:document-units="px"
     inkscape:current-layer="layer1"
     showgrid="false"
     inkscape:window-width="1171"
     inkscape:window-height="822"
     inkscape:window-x="158"
     inkscape:window-y="67"
     inkscape:window-maximized="0">
    <inkscape:grid
       type="xygrid"
       id="grid2985"
       empspacing="5"
       visible="true"
       enabled="true"
       snapvisiblegridlinesonly="true" />
  </sodipodi:namedview>
  <metadata
     id="metadata7">
    <rdf:RDF>
      <cc:Work
         rdf:about="">
        <dc:format>image/svg+xml</dc:format>
        <dc:type
           rdf:resource="http://purl.org/dc/dcmitype/StillImage" />
        <dc:title></dc:title>
      </cc:Work>
    </rdf:RDF>
  </metadata>
  <g
     inkscape:label="Ebene 1"
     inkscape:groupmode="layer"
     id="layer1"
     transform="translate(0,-1036.3622)">
    <path
       inkscape:connector-curvature="0"
       id="path2988"
       d="m 14.5,1050.8622 0,-12 -12,0"
       style="fill:none;stroke:#000000;stroke-width:1px;stroke-linecap:square;stroke-linejoin:miter;stroke-opacity:0.15686275" />
    <path
       style="fill:none;stroke:#808080;stroke-width:1px;stroke-linecap:square;stroke-linejoin:miter;stroke-opacity:1"
       d="m 2.5,1038.8622 0,12 12,0"
       id="path2989"
       inkscape:connector-curvature="0" />
    <path
       transform="matrix(1.3142298,0,0,1.3142298,1.4963152,1041.4972)"
       d="m 6.4081554,4.24435 c 0,0.4881553 -0.3957281,0.8838834 -0.8838834,0.8838834 -0.4881554,0 -0.8838835,-0.3957281 -0.8838835,-0.8838834 0,-0.4881554 0.3957281,-0.8838835 0.8838835,-0.8838835 0.4881553,0 0.8838834,0.3957281 0.8838834,0.8838835 z"
       sodipodi:ry="0.88388348"
       sodipodi:rx="0.88388348"
       sodipodi:cy="4.24435"
       sodipodi:cx="5.524272"
       id="path3798"
       style="fill:#009eff;fill-opacity:1;stroke:#007ac5;stroke-width:0.38045096;stroke-miterlimit:4;stroke-opacity:1;stroke-dasharray:none"
       sodipodi:type="arc" />
    <path
       sodipodi:type="arc"
       style="fill:#009eff;fill-opacity:1;stroke:#007ac5;stroke-width:0.38045096;stroke-miterlimit:4;stroke-opacity:1;stroke-dasharray:none"
       id="path3815"
       sodipodi:cx="5.524272"
       sodipodi:cy="4.24435"
       sodipodi:rx="0.88388348"
       sodipodi:ry="0.88388348"
       d="m 6.4081554,4.24435 c 0,0.4881553 -0.3957281,0.8838834 -0.8838834,0.8838834 -0.4881554,0 -0.8838835,-0.3957281 -0.8838835,-0.8838834 0,-0.4881554 0.3957281,-0.8838835 0.8838835,-0.8838835 0.4881553,0 0.8838834,0.3957281 0.8838834,0.8838835 z"
       transform="matrix(1.3142298,0,0,1.3142298,5.0321182,1042.9947)" />
    <path
       transform="matrix(1.3142298,0,0,1.3142298,-1.1659365,1038.7102)"
       d="m 6.4081554,4.24435 c 0,0.4881553 -0.3957281,0.8838834 -0.8838834,0.8838834 -0.4881554,0 -0.8838835,-0.3957281 -0.8838835,-0.8838834 0,-0.4881554 0.3957281,-0.8838835 0.8838835,-0.8838835 0.4881553,0 0.8838834,0.3957281 0.8838834,0.8838835 z"
       sodipodi:ry="0.88388348"
       sodipodi:rx="0.88388348"
       sodipodi:cy="4.24435"
       sodipodi:cx="5.524272"
       id="path3817"
       style="fill:#009eff;fill-opacity:1;stroke:#007ac5;stroke-width:0.38045096;stroke-miterlimit:4;stroke-opacity:1;stroke-dasharray:none"
       sodipodi:type="arc" />
    <path
       sodipodi:type="arc"
       style="fill:#009eff;fill-opacity:1;stroke:#007ac5;stroke-width:0.38045096;stroke-miterlimit:4;stroke-opacity:1;stroke-dasharray:none"
       id="path3819"
       sodipodi:cx="5.524272"
       sodipodi:cy="4.24435"
       sodipodi:rx="0.88388348"
       sodipodi:ry="0.88388348"
       d="m 6.4081554,4.24435 c 0,0.4881553 -0.3957281,0.8838834 -0.8838834,0.8838834 -0.4881554,0 -0.8838835,-0.3957281 -0.8838835,-0.8838834 0,-0.4881554 0.3957281,-0.8838835 0.8838835,-0.8838835 0.4881553,0 0.8838834,0.3957281 0.8838834,0.8838835 z"
       transform="matrix(1.3142298,0,0,1.3142298,-2.2058785,1035.008)" />
  </g>
</svg>
