<?xml version="1.0" encoding="UTF-8" standalone="no"?>
<!-- Created with Inkscape (http://www.inkscape.org/) -->

<svg
   xmlns:dc="http://purl.org/dc/elements/1.1/"
   xmlns:cc="http://creativecommons.org/ns#"
   xmlns:rdf="http://www.w3.org/1999/02/22-rdf-syntax-ns#"
   xmlns:svg="http://www.w3.org/2000/svg"
   xmlns="http://www.w3.org/2000/svg"
   xmlns:xlink="http://www.w3.org/1999/xlink"
   xmlns:sodipodi="http://sodipodi.sourceforge.net/DTD/sodipodi-0.dtd"
   xmlns:inkscape="http://www.inkscape.org/namespaces/inkscape"
   width="645"
   height="222"
   id="svg2"
   version="1.1"
   inkscape:version="0.47 r22583"
   sodipodi:docname="usus-mit-text.svg"
   inkscape:export-filename="/Users/marc/Desktop/usus-mit-text-500.png"
   inkscape:export-xdpi="69.769997"
   inkscape:export-ydpi="69.769997">
  <defs
     id="defs4">
    <linearGradient
       id="linearGradient3632">
      <stop
         style="stop-color:#296fa5;stop-opacity:1;"
         offset="0"
         id="stop3634" />
      <stop
         style="stop-color:#113c5e;stop-opacity:1;"
         offset="1"
         id="stop3636" />
    </linearGradient>
    <inkscape:perspective
       sodipodi:type="inkscape:persp3d"
       inkscape:vp_x="0 : 526.18109 : 1"
       inkscape:vp_y="0 : 1000 : 0"
       inkscape:vp_z="744.09448 : 526.18109 : 1"
       inkscape:persp3d-origin="372.04724 : 350.78739 : 1"
       id="perspective10" />
    <inkscape:perspective
       id="perspective2836"
       inkscape:persp3d-origin="0.5 : 0.33333333 : 1"
       inkscape:vp_z="1 : 0.5 : 1"
       inkscape:vp_y="0 : 1000 : 0"
       inkscape:vp_x="0 : 0.5 : 1"
       sodipodi:type="inkscape:persp3d" />
    <linearGradient
       inkscape:collect="always"
       xlink:href="#linearGradient3632"
       id="linearGradient3638"
       x1="188.85938"
       y1="317.625"
       x2="188.85938"
       y2="353.15219"
       gradientUnits="userSpaceOnUse"
       gradientTransform="matrix(2.0053566,0,0,2.0053566,155.32674,-488.96352)" />
    <linearGradient
       inkscape:collect="always"
       xlink:href="#linearGradient3632"
       id="linearGradient3646"
       x1="179.82742"
       y1="317.50104"
       x2="179.82742"
       y2="353.29422"
       gradientUnits="userSpaceOnUse" />
    <filter
       id="filter4312"
       inkscape:label="Drop shadow"
       width="1.5"
       height="1.5"
       x="-0.25"
       y="-0.25"
       color-interpolation-filters="sRGB">
      <feGaussianBlur
         id="feGaussianBlur4314"
         in="SourceAlpha"
         stdDeviation="2,000000"
         result="blur" />
      <feColorMatrix
         id="feColorMatrix4316"
         result="bluralpha"
         type="matrix"
         values="1 0 0 0 0 0 1 0 0 0 0 0 1 0 0 0 0 0 0,300000 0 " />
      <feOffset
         id="feOffset4318"
         in="bluralpha"
         dx="3,000000"
         dy="3,000000"
         result="offsetBlur" />
      <feMerge
         id="feMerge4320">
        <feMergeNode
           id="feMergeNode4322"
           in="offsetBlur" />
        <feMergeNode
           id="feMergeNode4324"
           in="SourceGraphic" />
      </feMerge>
    </filter>
    <linearGradient
       inkscape:collect="always"
       xlink:href="#linearGradient3632"
       id="linearGradient2841"
       gradientUnits="userSpaceOnUse"
       gradientTransform="matrix(2.0053566,0,0,2.0053566,155.32674,-488.96352)"
       x1="188.85938"
       y1="317.625"
       x2="188.85938"
       y2="353.15219" />
  </defs>
  <sodipodi:namedview
     id="base"
     pagecolor="#ffffff"
     bordercolor="#666666"
     borderopacity="1.0"
     inkscape:pageopacity="0.0"
     inkscape:pageshadow="2"
     inkscape:zoom="0.99707538"
     inkscape:cx="511.15718"
     inkscape:cy="90.164353"
     inkscape:document-units="px"
     inkscape:current-layer="layer1"
     showgrid="false"
     showborder="true"
     inkscape:window-width="1920"
     inkscape:window-height="1032"
     inkscape:window-x="0"
     inkscape:window-y="0"
     inkscape:window-maximized="0" />
  <metadata
     id="metadata7">
    <rdf:RDF>
      <cc:Work
         rdf:about="">
        <dc:format>image/svg+xml</dc:format>
        <dc:type
           rdf:resource="http://purl.org/dc/dcmitype/StillImage" />
        <dc:title></dc:title>
      </cc:Work>
    </rdf:RDF>
  </metadata>
  <g
     inkscape:label="Ebene 1"
     inkscape:groupmode="layer"
     id="layer1"
     transform="translate(-54.936364,-49.859429)">
    <g
       id="g2833"
       transform="matrix(1.3422057,0,0,1.3422057,-231.07806,-75.610553)">
      <g
         transform="matrix(4.1755277,0,0,4.1755277,-644.10569,-1239.1923)"
         id="text2816"
         style="font-size:40px;font-style:normal;font-variant:normal;font-weight:normal;font-stretch:normal;line-height:125%;fill:#000000;fill-opacity:1;stroke:none;font-family:Andale Mono;-inkscape-font-specification:Andale Mono" />
      <path
         id="rect2826"
         d="m 505.51214,147.98789 0,2.82003 c 0.65279,0.0523 1.48833,0.14104 2.5067,0.37601 1.01834,0.20894 1.85389,0.51184 2.50669,0.87734 0.91388,0.5223 1.53013,1.12805 1.81736,1.75469 0.31339,0.6006 0.50131,1.34218 0.50133,2.25603 l 0,32.83771 c -2e-5,2.08892 0.42823,4.14651 1.31602,6.07874 0.88777,1.90615 2.19857,3.58772 3.94805,5.07605 1.77556,1.48836 3.96892,2.6477 6.58007,3.50938 2.61112,0.88777 5.55649,1.31602 8.89877,1.31602 2.08889,0 4.30835,-0.31334 6.58008,-0.94002 2.29778,-0.60056 4.45456,-1.598 6.51741,-3.00803 2.08886,-1.46223 3.79656,-3.30569 5.07605,-5.5774 1.27942,-2.27167 1.87999,-4.94028 1.88003,-8.02143 l 0,-24.18961 c -4e-5,-2.71555 0.2245,-5.01335 0.56401,-6.89341 0.33938,-1.87998 0.9295,-3.09678 1.81735,-3.69738 0.88773,-0.57439 2.03664,-1.02875 3.44671,-1.31602 1.40994,-0.28712 2.46486,-0.4126 3.19604,-0.43867 l 0,-2.82003 -22.6856,0 0,2.82003 c 0.83551,0.0523 2.00531,0.26118 3.57204,0.62668 1.59275,0.36561 2.8461,0.85129 3.76004,1.50401 0.8094,0.5745 1.46219,1.78084 1.88002,3.63471 0.41774,1.82785 0.62664,4.1831 0.62668,7.08142 l 0,22.81093 c -4e-5,1.56671 -0.2455,3.09683 -0.68935,4.63739 -0.44394,1.54057 -1.1855,3.03938 -2.25602,4.44938 -1.12284,1.48836 -2.67908,2.65814 -4.63739,3.57205 -1.93228,0.9139 -4.33453,1.37868 -7.20675,1.37868 -3.05506,0 -5.45732,-0.46478 -7.20674,-1.37868 -1.7495,-0.91391 -3.11774,-2.07324 -4.13605,-3.50938 -0.96614,-1.41 -1.66594,-2.89313 -2.00536,-4.51205 -0.31338,-1.64502 -0.4387,-3.2117 -0.43867,-4.70006 l 0,-30.70702 c -3e-5,-0.86162 0.15142,-1.65019 0.43867,-2.38136 0.31332,-0.73107 0.92954,-1.25329 1.81736,-1.56669 0.52221,-0.18272 1.28464,-0.41771 2.38135,-0.62667 1.12276,-0.20892 2.08888,-0.28727 2.82004,-0.31334 l 0,-2.82003 -23.18694,0 z m -0.12533,67.49278 0,3.50938 57.34066,0 0,-3.50938 -57.34066,0 z"
         style="fill:url(#linearGradient2841);fill-opacity:1;stroke:none" />
      <text
         sodipodi:linespacing="110%"
         id="text2846"
         y="203.56793"
         x="678.07947"
         style="font-size:80.17943573px;font-style:normal;font-variant:normal;font-weight:normal;font-stretch:normal;text-align:end;line-height:110.00000238%;writing-mode:lr-tb;text-anchor:end;fill:#b3b3b3;fill-opacity:1;stroke:none;font-family:Georgia;-inkscape-font-specification:Georgia"
         xml:space="preserve"><tspan
           style="font-size:80.17943573px;font-style:normal;font-variant:normal;font-weight:normal;font-stretch:normal;text-align:end;line-height:110.00000238%;writing-mode:lr-tb;text-anchor:end;fill:#b3b3b3;fill-opacity:1;font-family:Georgia;-inkscape-font-specification:Georgia"
           id="tspan2850"
           y="203.56793"
           x="678.07947"
           sodipodi:role="line">sus</tspan></text>
      <text
         xml:space="preserve"
         style="font-size:80.17943573px;font-style:normal;font-variant:normal;font-weight:normal;font-stretch:normal;text-align:start;line-height:110.00000238%;writing-mode:lr-tb;text-anchor:start;fill:#b3b3b3;fill-opacity:1;stroke:none;font-family:Georgia;-inkscape-font-specification:Georgia"
         x="232.07945"
         y="203.56793"
         id="text2829"
         sodipodi:linespacing="110%"><tspan
           sodipodi:role="line"
           x="232.07945"
           y="203.56793"
           id="tspan2831"
           style="fill:#b3b3b3;fill-opacity:1">Project</tspan></text>
    </g>
  </g>
</svg>
