<?xml version="1.0" encoding="UTF-8" standalone="no"?>
<!-- Created with Inkscape (http://www.inkscape.org/) -->

<svg
   xmlns:dc="http://purl.org/dc/elements/1.1/"
   xmlns:cc="http://creativecommons.org/ns#"
   xmlns:rdf="http://www.w3.org/1999/02/22-rdf-syntax-ns#"
   xmlns:svg="http://www.w3.org/2000/svg"
   xmlns="http://www.w3.org/2000/svg"
   xmlns:xlink="http://www.w3.org/1999/xlink"
   xmlns:sodipodi="http://sodipodi.sourceforge.net/DTD/sodipodi-0.dtd"
   xmlns:inkscape="http://www.inkscape.org/namespaces/inkscape"
   width="170"
   height="170"
   id="svg2"
   version="1.1"
   inkscape:version="0.47 r22583"
   sodipodi:docname="usus-ohne-text.svg"
   inkscape:export-filename="/Users/marc/Desktop/usus-ohne-text.png"
   inkscape:export-xdpi="29.117647"
   inkscape:export-ydpi="29.117647">
  <defs
     id="defs4">
    <linearGradient
       id="linearGradient3632">
      <stop
         style="stop-color:#296fa5;stop-opacity:1;"
         offset="0"
         id="stop3634" />
      <stop
         style="stop-color:#113c5e;stop-opacity:1;"
         offset="1"
         id="stop3636" />
    </linearGradient>
    <inkscape:perspective
       sodipodi:type="inkscape:persp3d"
       inkscape:vp_x="0 : 526.18109 : 1"
       inkscape:vp_y="0 : 1000 : 0"
       inkscape:vp_z="744.09448 : 526.18109 : 1"
       inkscape:persp3d-origin="372.04724 : 350.78739 : 1"
       id="perspective10" />
    <inkscape:perspective
       id="perspective2836"
       inkscape:persp3d-origin="0.5 : 0.33333333 : 1"
       inkscape:vp_z="1 : 0.5 : 1"
       inkscape:vp_y="0 : 1000 : 0"
       inkscape:vp_x="0 : 0.5 : 1"
       sodipodi:type="inkscape:persp3d" />
    <linearGradient
       inkscape:collect="always"
       xlink:href="#linearGradient3632"
       id="linearGradient3638"
       x1="188.85938"
       y1="317.625"
       x2="188.85938"
       y2="353.15219"
       gradientUnits="userSpaceOnUse"
       gradientTransform="matrix(4.1755277,0,0,4.1755277,-644.10569,-1239.1923)" />
    <filter
       id="filter4312"
       inkscape:label="Drop shadow"
       width="1.5"
       height="1.5"
       x="-0.25"
       y="-0.25"
       color-interpolation-filters="sRGB">
      <feGaussianBlur
         id="feGaussianBlur4314"
         in="SourceAlpha"
         stdDeviation="2,000000"
         result="blur" />
      <feColorMatrix
         id="feColorMatrix4316"
         result="bluralpha"
         type="matrix"
         values="1 0 0 0 0 0 1 0 0 0 0 0 1 0 0 0 0 0 0,300000 0 " />
      <feOffset
         id="feOffset4318"
         in="bluralpha"
         dx="3,000000"
         dy="3,000000"
         result="offsetBlur" />
      <feMerge
         id="feMerge4320">
        <feMergeNode
           id="feMergeNode4322"
           in="offsetBlur" />
        <feMergeNode
           id="feMergeNode4324"
           in="SourceGraphic" />
      </feMerge>
    </filter>
    <linearGradient
       inkscape:collect="always"
       xlink:href="#linearGradient3632"
       id="linearGradient4363"
       gradientUnits="userSpaceOnUse"
       gradientTransform="matrix(4.1755277,0,0,4.1755277,-648.65118,-1213.3125)"
       x1="188.85938"
       y1="317.625"
       x2="188.85938"
       y2="353.15219" />
  </defs>
  <sodipodi:namedview
     id="base"
     pagecolor="#ffffff"
     bordercolor="#666666"
     borderopacity="1.0"
     inkscape:pageopacity="0.0"
     inkscape:pageshadow="2"
     inkscape:zoom="0.99707538"
     inkscape:cx="-159.4094"
     inkscape:cy="111"
     inkscape:document-units="px"
     inkscape:current-layer="layer1"
     showgrid="false"
     showborder="true"
     inkscape:window-width="1920"
     inkscape:window-height="1032"
     inkscape:window-x="0"
     inkscape:window-y="0"
     inkscape:window-maximized="1" />
  <metadata
     id="metadata7">
    <rdf:RDF>
      <cc:Work
         rdf:about="">
        <dc:format>image/svg+xml</dc:format>
        <dc:type
           rdf:resource="http://purl.org/dc/dcmitype/StillImage" />
        <dc:title></dc:title>
      </cc:Work>
    </rdf:RDF>
  </metadata>
  <g
     inkscape:label="Ebene 1"
     inkscape:groupmode="layer"
     id="layer1"
     transform="translate(-54.936364,-101.85943)">
    <g
       style="font-size:40px;font-style:normal;font-variant:normal;font-weight:normal;font-stretch:normal;line-height:125%;fill:#000000;fill-opacity:1;stroke:none;font-family:Andale Mono;-inkscape-font-specification:Andale Mono"
       id="text2816"
       transform="matrix(4.1755277,0,0,4.1755277,-644.10569,-1239.1923)" />
    <path
       style="fill:url(#linearGradient4363);fill-opacity:1;stroke:none"
       d="m 80.500339,112.93954 0,5.87184 c 1.359218,0.10885 3.098994,0.29366 5.21941,0.78291 2.120375,0.43504 3.86015,1.06576 5.21941,1.82679 1.902871,1.08752 3.18601,2.34882 3.784071,3.65359 0.652549,1.25057 1.04384,2.79468 1.04388,4.69747 l 0,68.37426 c -4e-5,4.34952 0.89165,8.63382 2.74019,12.65707 1.84851,3.96896 4.57784,7.47031 8.22057,10.5693 3.69706,3.09904 8.26404,5.513 13.70095,7.30718 5.43683,1.8485 11.56964,2.74019 18.52891,2.74019 4.34944,0 8.97078,-0.65243 13.70095,-1.95728 4.7844,-1.25049 9.27522,-3.32735 13.57046,-6.26329 4.3494,-3.04463 7.90515,-6.88307 10.5693,-11.61319 2.66399,-4.73004 3.91448,-10.28658 3.91456,-16.70211 l 0,-50.3673 c -8e-5,-5.65429 0.46745,-10.43874 1.17437,-14.35338 0.70667,-3.91447 1.9354,-6.44806 3.78407,-7.69863 1.84842,-1.19599 4.24067,-2.14204 7.17669,-2.74019 2.93577,-0.59785 5.13231,-0.85911 6.65475,-0.91339 l 0,-5.87184 -47.23566,0 0,5.87184 c 1.73969,0.10885 4.17544,0.54382 7.43766,1.30485 3.31641,0.76128 5.92612,1.77255 7.82911,3.13164 1.68533,1.19621 3.04455,3.70804 3.91456,7.56815 0.8698,3.80591 1.30477,8.70998 1.30485,14.74483 l 0,47.49663 c -8e-5,3.26217 -0.51117,6.44818 -1.43534,9.65591 -0.92437,3.20776 -2.46844,6.32855 -4.69746,9.26445 -2.33797,3.09903 -5.57834,5.53474 -9.65591,7.43766 -4.02337,1.90291 -9.02532,2.87067 -15.0058,2.87067 -6.36121,0 -11.36316,-0.96776 -15.0058,-2.87067 -3.64278,-1.90292 -6.4917,-4.31687 -8.61203,-7.30718 -2.01168,-2.93589 -3.46878,-6.02403 -4.17553,-9.39493 -0.65251,-3.42523 -0.91344,-6.68736 -0.91339,-9.7864 l 0,-63.93777 c -5e-5,-1.79405 0.31529,-3.436 0.91339,-4.95844 0.65239,-1.52222 1.93549,-2.60957 3.78408,-3.26213 1.08734,-0.38047 2.67488,-0.86976 4.95843,-1.30485 2.3378,-0.435 4.34944,-0.59814 5.87184,-0.65242 l 0,-5.87184 -48.279541,0 z m -0.26097,140.5326 0,7.30718 119.393991,0 0,-7.30718 -119.393992,0 z"
       id="rect2826" />
  </g>
</svg>
