<?xml version="1.0" encoding="UTF-8" standalone="no"?>
<!-- Created with Inkscape (http://www.inkscape.org/) -->

<svg
   xmlns:dc="http://purl.org/dc/elements/1.1/"
   xmlns:cc="http://creativecommons.org/ns#"
   xmlns:rdf="http://www.w3.org/1999/02/22-rdf-syntax-ns#"
   xmlns:svg="http://www.w3.org/2000/svg"
   xmlns="http://www.w3.org/2000/svg"
   xmlns:xlink="http://www.w3.org/1999/xlink"
   xmlns:sodipodi="http://sodipodi.sourceforge.net/DTD/sodipodi-0.dtd"
   xmlns:inkscape="http://www.inkscape.org/namespaces/inkscape"
   width="110"
   height="80"
   id="svg2"
   version="1.1"
   inkscape:version="0.48.2 r9819"
   sodipodi:docname="usus-marketplace.svg"
   inkscape:export-filename="/Users/mphilipp/Desktop/usus-marketplace.png"
   inkscape:export-xdpi="90"
   inkscape:export-ydpi="90">
  <defs
     id="defs4">
    <linearGradient
       id="linearGradient3632">
      <stop
         style="stop-color:#296fa5;stop-opacity:1;"
         offset="0"
         id="stop3634" />
      <stop
         style="stop-color:#113c5e;stop-opacity:1;"
         offset="1"
         id="stop3636" />
    </linearGradient>
    <inkscape:perspective
       sodipodi:type="inkscape:persp3d"
       inkscape:vp_x="0 : 526.18109 : 1"
       inkscape:vp_y="0 : 1000 : 0"
       inkscape:vp_z="744.09448 : 526.18109 : 1"
       inkscape:persp3d-origin="372.04724 : 350.78739 : 1"
       id="perspective10" />
    <inkscape:perspective
       id="perspective2836"
       inkscape:persp3d-origin="0.5 : 0.33333333 : 1"
       inkscape:vp_z="1 : 0.5 : 1"
       inkscape:vp_y="0 : 1000 : 0"
       inkscape:vp_x="0 : 0.5 : 1"
       sodipodi:type="inkscape:persp3d" />
    <linearGradient
       inkscape:collect="always"
       xlink:href="#linearGradient3632"
       id="linearGradient3638"
       x1="188.85938"
       y1="317.625"
       x2="188.85938"
       y2="353.15219"
       gradientUnits="userSpaceOnUse"
       gradientTransform="matrix(4.1755277,0,0,4.1755277,-644.10569,-1239.1923)" />
    <filter
       id="filter4312"
       inkscape:label="Drop shadow"
       width="1.5"
       height="1.5"
       x="-0.25"
       y="-0.25"
       color-interpolation-filters="sRGB">
      <feGaussianBlur
         id="feGaussianBlur4314"
         in="SourceAlpha"
         stdDeviation="2,000000"
         result="blur" />
      <feColorMatrix
         id="feColorMatrix4316"
         result="bluralpha"
         type="matrix"
         values="1 0 0 0 0 0 1 0 0 0 0 0 1 0 0 0 0 0 0,300000 0 " />
      <feOffset
         id="feOffset4318"
         in="bluralpha"
         dx="3,000000"
         dy="3,000000"
         result="offsetBlur" />
      <feMerge
         id="feMerge4320">
        <feMergeNode
           id="feMergeNode4322"
           in="offsetBlur" />
        <feMergeNode
           id="feMergeNode4324"
           in="SourceGraphic" />
      </feMerge>
    </filter>
    <linearGradient
       inkscape:collect="always"
       xlink:href="#linearGradient3632"
       id="linearGradient3607"
       x1="139.93637"
       y1="101.85943"
       x2="139.93637"
       y2="271.85944"
       gradientUnits="userSpaceOnUse"
       gradientTransform="translate(570.37542,-120.20815)" />
    <radialGradient
       inkscape:collect="always"
       xlink:href="#linearGradient3632"
       id="radialGradient3611"
       cx="139.93634"
       cy="186.85948"
       fx="139.93634"
       fy="186.85948"
       r="85"
       gradientUnits="userSpaceOnUse"
       gradientTransform="matrix(1.3239792,0,0,1,-45.336435,-4.9165908e-5)" />
    <radialGradient
       inkscape:collect="always"
       xlink:href="#linearGradient3632"
       id="radialGradient3023"
       gradientUnits="userSpaceOnUse"
       gradientTransform="matrix(1.3239792,0,0,1,-45.336435,-4.9165908e-5)"
       cx="139.93634"
       cy="186.85948"
       fx="139.93634"
       fy="186.85948"
       r="85" />
    <radialGradient
       inkscape:collect="always"
       xlink:href="#linearGradient3632"
       id="radialGradient3027"
       gradientUnits="userSpaceOnUse"
       gradientTransform="matrix(0.85669243,0,0,0.47058824,-9.9460354,143.92556)"
       cx="139.93634"
       cy="186.85948"
       fx="139.93634"
       fy="186.85948"
       r="85" />
  </defs>
  <sodipodi:namedview
     id="base"
     pagecolor="#ffffff"
     bordercolor="#666666"
     borderopacity="1.0"
     inkscape:pageopacity="0.0"
     inkscape:pageshadow="2"
     inkscape:zoom="2.3058824"
     inkscape:cx="-16.551431"
     inkscape:cy="-695.61224"
     inkscape:document-units="px"
     inkscape:current-layer="layer1"
     showgrid="false"
     showborder="true"
     inkscape:window-width="1680"
     inkscape:window-height="1006"
     inkscape:window-x="0"
     inkscape:window-y="0"
     inkscape:window-maximized="0" />
  <metadata
     id="metadata7">
    <rdf:RDF>
      <cc:Work
         rdf:about="">
        <dc:format>image/svg+xml</dc:format>
        <dc:type
           rdf:resource="http://purl.org/dc/dcmitype/StillImage" />
        <dc:title></dc:title>
      </cc:Work>
    </rdf:RDF>
  </metadata>
  <g
     inkscape:label="Ebene 1"
     inkscape:groupmode="layer"
     id="layer1"
     transform="translate(-54.936364,-191.85943)">
    <g
       style="font-size:40px;font-style:normal;font-variant:normal;font-weight:normal;font-stretch:normal;line-height:125%;fill:#000000;fill-opacity:1;stroke:none;font-family:Andale Mono;-inkscape-font-specification:Andale Mono"
       id="text2816"
       transform="matrix(4.1755277,0,0,4.1755277,-644.10569,-1239.1923)" />
    <rect
       y="191.85944"
       x="54.936363"
       height="80"
       width="110"
       id="rect3609"
       style="fill:url(#radialGradient3027);fill-opacity:1;stroke:none" />
    <path
       style="fill:#ffffff;fill-opacity:1;stroke:none"
       d="m 87.138828,205.38876 0,2.25222 c 0.521348,0.0417 1.188664,0.11264 2.00198,0.3003 0.8133,0.16687 1.480615,0.40879 2.001977,0.70069 0.729873,0.41714 1.222042,0.90092 1.451435,1.40139 0.250296,0.47967 0.400381,1.07194 0.400395,1.80178 l 0,26.22592 c -1.4e-5,1.66832 0.342005,3.31163 1.05104,4.8548 0.709022,1.52235 1.755897,2.86534 3.153116,4.05401 1.418061,1.18868 3.169789,2.11459 5.255199,2.80277 2.08537,0.70902 4.43769,1.05104 7.10702,1.05104 1.66829,0 3.44087,-0.25025 5.2552,-0.75074 1.83512,-0.47965 3.55764,-1.27626 5.20514,-2.40238 1.66828,-1.16781 3.03214,-2.6401 4.05401,-4.4544 1.02181,-1.81428 1.50146,-3.94557 1.50148,-6.40633 l 0,-19.3191 c -2e-5,-2.16878 0.1793,-4.00393 0.45045,-5.50545 0.27105,-1.50145 0.74235,-2.47324 1.45144,-2.95291 0.70898,-0.45874 1.62657,-0.82161 2.75272,-1.05104 1.12605,-0.22932 1.96857,-0.32953 2.55252,-0.35035 l 0,-2.25222 -18.11791,0 0,2.25222 c 0.66728,0.0417 1.60155,0.20859 2.85282,0.5005 1.27206,0.292 2.27305,0.67988 3.00297,1.20118 0.64643,0.45883 1.16778,1.42228 1.50148,2.90287 0.33363,1.45982 0.50046,3.34084 0.5005,5.65559 l 0,18.21801 c -4e-5,1.25126 -0.19607,2.47329 -0.55055,3.70367 -0.35455,1.23038 -0.9468,2.4274 -1.80178,3.55351 -0.89676,1.18867 -2.13965,2.12293 -3.70366,2.85282 -1.54322,0.72989 -3.46179,1.10109 -5.75569,1.10109 -2.43993,0 -4.3585,-0.3712 -5.75569,-1.10109 -1.39724,-0.72989 -2.48998,-1.6558 -3.30326,-2.80278 -0.77161,-1.1261 -1.3305,-2.3106 -1.60159,-3.60355 -0.250278,-1.3138 -0.350363,-2.56504 -0.350339,-3.75372 l 0,-24.52424 c -2.4e-5,-0.68813 0.120931,-1.31793 0.350339,-1.90188 0.25024,-0.58387 0.74239,-1.00094 1.45144,-1.25124 0.41706,-0.14593 1.02599,-0.33361 1.90188,-0.50049 0.89669,-0.16685 1.66828,-0.22943 2.25222,-0.25025 l 0,-2.25222 -18.518302,0 z m -0.100098,53.90328 0,2.80277 45.79527,0 0,-2.80277 -45.795271,0 z"
       id="rect2826"
       inkscape:connector-curvature="0" />
  </g>
</svg>
